<svg xmlns="https://www.w3.org/2000/svg">
  <defs>
    <style>.b{fill:#fff;opacity:1.0;}</style>
  </defs>
  <path class="b" d="M22.7 10.9c0 1.7-0.4 3.3-1.1 4.8 -0.7 1.5-1.8 2.8-3.2 3.8 -0.4 0.3-1.3-0.9-0.9-1.2 1.2-0.9 2.1-2 2.7-3.3 0.7-1.3 1-2.7 1-4.1 0-2.6-0.9-4.7-2.7-6.5 -1.8-1.8-4-2.7-6.5-2.7 -2.5 0-4.7 0.9-6.5 2.7 -1.8 1.8-2.7 4-2.7 6.5 0 2.4 0.8 4.5 2.5 6.3 1.7 1.8 3.7 2.7 6.1 2.9l-1.2-2c-0.2-0.3 0.9-1 1.1-0.7l2.3 3.7c0.2 0.3 0 0.6-0.2 0.7L9.5 23.8c-0.3 0.2-0.9-0.9-0.5-1.2l2.1-1.1c-2.7-0.2-5-1.4-6.9-3.4 -1.9-2-2.8-4.5-2.8-7.2 0-3 1.1-5.5 3.1-7.6C6.5 1.2 9 0.2 12 0.2c3 0 5.5 1.1 7.6 3.1C21.7 5.4 22.7 7.9 22.7 10.9z" transform="scale(-1,1) translate(-24,0)" filter="url(#f1)" /><path class="b" d="M8.1 15.1c-0.1 0-0.1 0-0.1-0.1V8C8 7.7 7.8 7.9 7.7 7.9L6.8 8.3C6.8 8.4 6.7 8.3 6.7 8.2L6.3 7.3C6.2 7.2 6.3 7.1 6.4 7.1l2.7-1.2c0.1 0 0.4 0 0.4 0.3v8.8c0 0.1 0 0.1-0.1 0.1H8.1z" /><path class="b" d="M17.7 10.6c0 2.9-1.3 4.7-3.5 4.7 -2.2 0-3.5-1.8-3.5-4.7s1.3-4.7 3.5-4.7C16.4 5.9 17.7 7.7 17.7 10.6zM12.3 10.6c0 2.1 0.7 3.4 2 3.4 1.3 0 2-1.2 2-3.4 0-2.1-0.7-3.4-2-3.4C13 7.2 12.3 8.5 12.3 10.6z" />
</svg>