<svg xmlns="http://www.w3.org/2000/svg" filter="url(#f1)" viewBox="0 0 1024 1024"><path fill="#fff" d="M538.562 888.166c58.963-10.397 112.008-34.056 159.75-67.504 47.744-33.449 86.111-79.556 112.22-134.225 7.96-15.71-39.163-39.587-47.12-23.875-23.874 47.12-56.52 85.068-97.943 113.821-40.809 32.232-87.523 51.2-136.08 59.761-90.173 15.9-168.514-2.47-241.952-53.888-73.439-51.419-118.103-122.225-133.391-208.93-15.29-86.711 2.47-168.514 53.888-241.953 51.419-73.438 122.225-118.102 208.93-133.39 83.242-14.678 160.962.222 233.79 48.183 72.83 47.961 116.268 111.818 137.886 193.839l-76.702-29.386c-11.63-5.103-29.184 37.33-17.554 42.431l142.393 57.138c11.63 5.104 20.814-3.67 23.058-11.22l45.512-147.5c5.104-11.63-36.716-25.708-44.672-9.997l-25.307 79.564c-23.45-92.416-79.134-164.856-160.118-218.522-80.985-53.667-173.195-69.6-266.848-53.086-104.047 18.346-184.032 71.785-244.639 153.994-60.606 82.21-79.996 175.029-61.649 279.078C120.36 686.546 173.8 766.532 256.01 827.14c85.68 59.993 178.502 79.383 282.554 61.036l-.001-.01Z"/><path fill="#fff" d="M353.042 646.518c-2.989 0-2.989 0-2.989-2.989V434.29c0-8.97-5.981-2.989-8.97-2.989l-26.901 11.957c0 2.989-2.987 0-2.987-2.987l-11.957-26.902c-2.989-2.988 0-5.98 2.987-5.98l80.704-35.866c2.987 0 11.956 0 11.956 8.969v263.045c0 2.989 0 2.989-2.988 2.989h-38.861l.006-.008ZM640 512c0 86.684-38.861 140.489-104.623 140.489-65.76 0-104.621-53.805-104.621-140.489s38.861-140.489 104.621-140.489C601.141 371.511 640 425.316 640 512Zm-161.411 0c0 62.774 20.928 101.629 59.781 101.629 38.854 0 59.782-35.866 59.782-101.629 0-62.775-20.928-101.63-59.782-101.63-38.853 0-59.781 38.861-59.781 101.63Z"/></svg>