<svg xmlns="http://www.w3.org/2000/svg" filter="url(#f1)" viewBox="0 0 1024 1024"><path fill="#fff" d="M485.439 888.166c-58.964-10.397-112.008-34.055-159.751-67.504-47.743-33.449-86.111-79.556-112.22-134.225-7.96-15.709 39.164-39.587 47.12-23.874 23.875 47.12 56.521 85.068 97.943 113.82 40.81 32.232 87.524 51.2 136.08 59.761 90.173 15.9 168.514-2.47 241.953-53.888 73.438-51.419 118.102-122.225 133.39-208.93 15.29-86.71-2.47-168.514-53.888-241.953-51.419-73.438-122.225-118.102-208.93-133.39-83.242-14.678-160.962.223-233.791 48.184-72.829 47.96-116.267 111.817-137.885 193.838l76.702-29.384c11.63-5.104 29.184 37.328 17.554 42.43l-142.393 57.138c-11.63 5.103-20.814-3.67-23.058-11.22L118.753 351.47c-5.104-11.63 36.716-25.71 44.672-9.998l25.307 79.564c23.45-92.416 79.134-164.856 160.118-218.523 80.985-53.667 173.195-69.6 266.847-53.086 104.047 18.346 184.033 71.785 244.64 153.994 60.606 82.21 79.996 175.028 61.649 279.078C903.64 686.546 850.2 766.532 767.992 827.138c-85.68 59.994-178.503 79.384-282.555 61.037l.002-.01Z"/><path fill="#fff" d="M436.039 646.516c-2.986 0-2.986 0-2.986-2.99V434.29c0-8.967-5.981-2.988-8.971-2.988l-26.898 11.957c0 2.988-2.99 0-2.99-2.987l-11.956-26.901c-2.989-2.99 0-5.98 2.988-5.98l80.702-35.865c2.988 0 11.956 0 11.956 8.968v263.041c0 2.989 0 2.989-2.988 2.989h-38.86l.003-.008ZM723 511.999c0 86.682-38.861 140.488-104.621 140.488-65.76 0-104.619-53.806-104.619-140.488 0-86.68 38.859-140.486 104.619-140.486C684.14 371.513 723 425.319 723 511.999Zm-161.412 0c0 62.775 20.924 101.627 59.779 101.627 38.855 0 59.78-35.865 59.78-101.627 0-62.773-20.925-101.626-59.78-101.626-38.855 0-59.779 38.859-59.779 101.626Z"/></svg>