<svg xmlns="http://www.w3.org/2000/svg" viewBox="0 0 1024 1024"><path fill="#fff" d="M887.057 472.836c0 59.873-14.088 116.22-38.738 169.046s-63.394 98.617-112.699 133.822c-14.088 10.568-45.786-31.694-31.694-42.258 42.258-31.694 73.961-70.434 95.084-116.22 24.656-45.786 35.223-95.084 35.223-144.39 0-91.564-31.694-165.525-95.084-228.919s-140.876-95.084-228.919-95.084c-88.049 0-165.525 31.694-228.919 95.084s-95.084 140.876-95.084 228.919c0 84.526 28.17 158.478 88.049 221.872s130.308 95.084 214.837 102.131l-42.258-70.434c-7.046-10.568 31.694-35.223 38.738-24.656l80.996 130.308c7.046 10.568 0 21.135-7.046 24.656l-137.355 70.434c-10.568 7.046-31.694-31.694-17.603-42.258l73.961-38.738c-95.084-7.046-176.093-49.305-243.007-119.74s-98.617-158.478-98.617-253.575c0-105.652 38.738-193.702 109.174-267.663S404.574 95.999 510.229 95.999c105.652 0 193.702 38.738 267.663 109.174 73.961 73.961 109.174 162.006 109.174 267.663z" filter="url(#f1)"/><path fill="#fff" d="M372.875 620.758c-3.521 0-3.521 0-3.521-3.521V370.709c0-10.568-7.046-3.521-10.568-3.521l-31.694 14.088c0 3.521-3.521 0-3.521-3.521l-14.088-31.694c-3.521-3.521 0-7.046 3.521-7.046l95.084-42.258c3.521 0 14.088 0 14.088 10.568v309.921c0 3.521 0 3.521-3.521 3.521h-45.786zm338.102-158.49c0 102.131-45.786 165.525-123.266 165.525s-123.266-63.394-123.266-165.525 45.786-165.525 123.266-165.525c77.482 0 123.266 63.394 123.266 165.525zm-190.18 0c0 73.961 24.656 119.74 70.434 119.74s70.434-42.258 70.434-119.74c0-73.961-24.656-119.74-70.434-119.74s-70.434 45.786-70.434 119.74z"/></svg>