<svg xmlns="http://www.w3.org/2000/svg" filter="url(#f1)" viewBox="118.3 143.2 810.3 751.6">
  <path fill="#fff" d="M485.4 888.2a395 395 0 0 1-159.7-67.5 343.4 343.4 0 0 1-112.2-134.3c-8-15.7 39.1-39.5 47-23.8a302 302 0 0 0 98 113.8A301.6 301.6 0 0 0 494.6 836c90.2 16 168.5-2.4 242-53.8a314 314 0 0 0 133.4-209 314 314 0 0 0-54-242A314 314 0 0 0 607.2 198a311 311 0 0 0-233.8 48.2C300.6 294.2 257.2 358 235.6 440l76.7-29.4c11.6-5 29.1 37.3 17.5 42.5l-142.4 57c-11.6 5.2-20.8-3.6-23-11.1l-45.5-147.5c-5.2-11.7 36.7-25.7 44.6-10l25.3 79.5C212.2 328.6 268 256.2 349 202.5c81-53.7 173.1-69.6 266.8-53 104 18.3 184 71.7 244.6 154 60.6 82.1 80 175 61.7 279-18.4 104-71.8 184-154 244.6-85.7 60-178.5 79.4-282.6 61ZM436 646.5c-3 0-3 0-3-3V434.3c0-9-6-3-9-3l-26.8 12c0 3-3 0-3-3l-12-27c-3-3 0-6 3-6l80.7-35.8c3 0 12 0 12 9v263c0 3 0 3-3 3H436ZM723 512c0 86.7-38.9 140.5-104.6 140.5-65.8 0-104.6-53.8-104.6-140.5s38.8-140.5 104.6-140.5C684 371.5 723 425.3 723 512Zm-161.4 0c0 62.8 21 101.6 59.8 101.6S681 577.8 681 512c0-62.8-20.9-101.6-59.7-101.6-38.9 0-59.8 38.8-59.8 101.6Z"/>
</svg>